<svg id="visual" viewBox="0 0 900 600" width="900" height="600" xmlns="http://www.w3.org/2000/svg" xmlns:xlink="http://www.w3.org/1999/xlink" version="1.1"><g stroke-width="1" stroke-linejoin="bevel"><path d="M494 313L598 284L518 218Z" fill="#113b40" stroke="#113b40"></path><path d="M598 284L568 186L518 218Z" fill="#195c57" stroke="#195c57"></path><path d="M494 313L580 390L598 284Z" fill="#145150" stroke="#145150"></path><path d="M712 283L660 232L598 284Z" fill="#0a1418" stroke="#0a1418"></path><path d="M598 284L660 232L568 186Z" fill="#0f1d23" stroke="#0f1d23"></path><path d="M396 124L404 232L518 218Z" fill="#01070b" stroke="#01070b"></path><path d="M518 218L404 232L494 313Z" fill="#20675d" stroke="#20675d"></path><path d="M494 313L533 425L580 390Z" fill="#113b40" stroke="#113b40"></path><path d="M404 388L533 425L494 313Z" fill="#10272d" stroke="#10272d"></path><path d="M404 232L394 329L494 313Z" fill="#113b40" stroke="#113b40"></path><path d="M580 390L712 283L598 284Z" fill="#2a7262" stroke="#2a7262"></path><path d="M394 329L404 388L494 313Z" fill="#113b40" stroke="#113b40"></path><path d="M660 232L580 100L568 186Z" fill="#01070b" stroke="#01070b"></path><path d="M568 186L519 96L518 218Z" fill="#113137" stroke="#113137"></path><path d="M727 118L580 100L660 232Z" fill="#145150" stroke="#145150"></path><path d="M580 100L519 96L568 186Z" fill="#10272d" stroke="#10272d"></path><path d="M519 96L396 124L518 218Z" fill="#195c57" stroke="#195c57"></path><path d="M404 232L334 322L394 329Z" fill="#10272d" stroke="#10272d"></path><path d="M533 425L563 480L580 390Z" fill="#20675d" stroke="#20675d"></path><path d="M580 390L731 391L712 283Z" fill="#113137" stroke="#113137"></path><path d="M469 509L563 480L533 425Z" fill="#0f1d23" stroke="#0f1d23"></path><path d="M264 188L334 322L404 232Z" fill="#113137" stroke="#113137"></path><path d="M394 329L334 322L404 388Z" fill="#20675d" stroke="#20675d"></path><path d="M697 489L731 391L580 390Z" fill="#20675d" stroke="#20675d"></path><path d="M803 218L660 232L712 283Z" fill="#124649" stroke="#124649"></path><path d="M803 218L727 118L660 232Z" fill="#195c57" stroke="#195c57"></path><path d="M369 508L469 509L404 388Z" fill="#195c57" stroke="#195c57"></path><path d="M404 388L469 509L533 425Z" fill="#0f1d23" stroke="#0f1d23"></path><path d="M334 322L326 431L404 388Z" fill="#145150" stroke="#145150"></path><path d="M563 480L697 489L580 390Z" fill="#20675d" stroke="#20675d"></path><path d="M593 600L697 489L563 480Z" fill="#10272d" stroke="#10272d"></path><path d="M819 296L712 283L731 391Z" fill="#10272d" stroke="#10272d"></path><path d="M819 296L803 218L712 283Z" fill="#124649" stroke="#124649"></path><path d="M817 484L791 393L731 391Z" fill="#0f1d23" stroke="#0f1d23"></path><path d="M791 393L819 296L731 391Z" fill="#10272d" stroke="#10272d"></path><path d="M519 96L476 0L396 124Z" fill="#0a1418" stroke="#0a1418"></path><path d="M610 0L476 0L519 96Z" fill="#20675d" stroke="#20675d"></path><path d="M610 0L519 96L580 100Z" fill="#0f1d23" stroke="#0f1d23"></path><path d="M361 0L339 74L396 124Z" fill="#113137" stroke="#113137"></path><path d="M396 124L264 188L404 232Z" fill="#113137" stroke="#113137"></path><path d="M334 322L214 385L326 431Z" fill="#113b40" stroke="#113b40"></path><path d="M727 118L610 0L580 100Z" fill="#113b40" stroke="#113b40"></path><path d="M339 74L264 188L396 124Z" fill="#0f1d23" stroke="#0f1d23"></path><path d="M326 431L369 508L404 388Z" fill="#145150" stroke="#145150"></path><path d="M264 188L235 235L334 322Z" fill="#145150" stroke="#145150"></path><path d="M791 0L712 0L727 118Z" fill="#113137" stroke="#113137"></path><path d="M727 118L712 0L610 0Z" fill="#113b40" stroke="#113b40"></path><path d="M476 0L361 0L396 124Z" fill="#20675d" stroke="#20675d"></path><path d="M339 74L166 125L264 188Z" fill="#10272d" stroke="#10272d"></path><path d="M264 188L166 125L235 235Z" fill="#124649" stroke="#124649"></path><path d="M364 600L512 600L469 509Z" fill="#113137" stroke="#113137"></path><path d="M469 509L512 600L563 480Z" fill="#113137" stroke="#113137"></path><path d="M803 218L825 109L727 118Z" fill="#10272d" stroke="#10272d"></path><path d="M900 199L825 109L803 218Z" fill="#124649" stroke="#124649"></path><path d="M512 600L593 600L563 480Z" fill="#124649" stroke="#124649"></path><path d="M697 489L817 484L731 391Z" fill="#0a1418" stroke="#0a1418"></path><path d="M235 235L210 311L334 322Z" fill="#0a1418" stroke="#0a1418"></path><path d="M326 431L287 513L369 508Z" fill="#124649" stroke="#124649"></path><path d="M361 0L332 0L339 74Z" fill="#145150" stroke="#145150"></path><path d="M210 311L214 385L334 322Z" fill="#2a7262" stroke="#2a7262"></path><path d="M214 385L287 513L326 431Z" fill="#2a7262" stroke="#2a7262"></path><path d="M369 508L364 600L469 509Z" fill="#10272d" stroke="#10272d"></path><path d="M796 600L817 484L697 489Z" fill="#0f1d23" stroke="#0f1d23"></path><path d="M900 390L900 304L819 296Z" fill="#113137" stroke="#113137"></path><path d="M819 296L900 199L803 218Z" fill="#20675d" stroke="#20675d"></path><path d="M593 600L667 600L697 489Z" fill="#10272d" stroke="#10272d"></path><path d="M900 390L819 296L791 393Z" fill="#113b40" stroke="#113b40"></path><path d="M900 304L900 199L819 296Z" fill="#124649" stroke="#124649"></path><path d="M308 600L364 600L369 508Z" fill="#124649" stroke="#124649"></path><path d="M900 0L791 0L825 109Z" fill="#0a1418" stroke="#0a1418"></path><path d="M825 109L791 0L727 118Z" fill="#113137" stroke="#113137"></path><path d="M817 484L900 390L791 393Z" fill="#20675d" stroke="#20675d"></path><path d="M233 600L308 600L287 513Z" fill="#20675d" stroke="#20675d"></path><path d="M287 513L308 600L369 508Z" fill="#10272d" stroke="#10272d"></path><path d="M177 0L166 125L339 74Z" fill="#124649" stroke="#124649"></path><path d="M235 235L130 283L210 311Z" fill="#0f1d23" stroke="#0f1d23"></path><path d="M210 311L133 390L214 385Z" fill="#195c57" stroke="#195c57"></path><path d="M900 199L900 92L825 109Z" fill="#124649" stroke="#124649"></path><path d="M95 233L130 283L235 235Z" fill="#145150" stroke="#145150"></path><path d="M214 385L187 534L287 513Z" fill="#20675d" stroke="#20675d"></path><path d="M900 600L900 479L817 484Z" fill="#10272d" stroke="#10272d"></path><path d="M817 484L900 479L900 390Z" fill="#01070b" stroke="#01070b"></path><path d="M667 600L796 600L697 489Z" fill="#2a7262" stroke="#2a7262"></path><path d="M130 283L133 390L210 311Z" fill="#01070b" stroke="#01070b"></path><path d="M133 390L187 534L214 385Z" fill="#20675d" stroke="#20675d"></path><path d="M166 125L95 233L235 235Z" fill="#0f1d23" stroke="#0f1d23"></path><path d="M130 283L0 387L133 390Z" fill="#124649" stroke="#124649"></path><path d="M187 534L233 600L287 513Z" fill="#113137" stroke="#113137"></path><path d="M900 92L900 0L825 109Z" fill="#124649" stroke="#124649"></path><path d="M332 0L177 0L339 74Z" fill="#195c57" stroke="#195c57"></path><path d="M166 125L95 97L95 233Z" fill="#145150" stroke="#145150"></path><path d="M177 0L95 97L166 125Z" fill="#0f1d23" stroke="#0f1d23"></path><path d="M796 600L900 600L817 484Z" fill="#20675d" stroke="#20675d"></path><path d="M62 525L116 600L187 534Z" fill="#113137" stroke="#113137"></path><path d="M187 534L116 600L233 600Z" fill="#113137" stroke="#113137"></path><path d="M62 525L187 534L133 390Z" fill="#0a1418" stroke="#0a1418"></path><path d="M0 480L62 525L133 390Z" fill="#0f1d23" stroke="#0f1d23"></path><path d="M0 264L130 283L95 233Z" fill="#20675d" stroke="#20675d"></path><path d="M0 183L0 264L95 233Z" fill="#2a7262" stroke="#2a7262"></path><path d="M0 96L0 183L95 97Z" fill="#10272d" stroke="#10272d"></path><path d="M95 97L0 183L95 233Z" fill="#145150" stroke="#145150"></path><path d="M177 0L64 0L95 97Z" fill="#113b40" stroke="#113b40"></path><path d="M0 264L0 387L130 283Z" fill="#113b40" stroke="#113b40"></path><path d="M64 0L0 96L95 97Z" fill="#145150" stroke="#145150"></path><path d="M0 387L0 480L133 390Z" fill="#0a1418" stroke="#0a1418"></path><path d="M62 525L0 600L116 600Z" fill="#113b40" stroke="#113b40"></path><path d="M64 0L0 0L0 96Z" fill="#195c57" stroke="#195c57"></path><path d="M0 480L0 600L62 525Z" fill="#0f1d23" stroke="#0f1d23"></path></g></svg>